<?xml version="1.0"?>
<svg xmlns="http://www.w3.org/2000/svg" viewBox="0 0 64 64" width="512" height="512"><g id="outline"><path d="M32,2A21.024,21.024,0,0,0,11,23V53a5,5,0,0,0,10,0V52a4.992,4.992,0,0,0,6,0v5a5,5,0,0,0,10,0V48a4.992,4.992,0,0,0,6,0v7a5,5,0,0,0,10,0V23A21.024,21.024,0,0,0,32,2ZM51,55a3,3,0,0,1-6,0V44H43a3,3,0,0,1-6,0H35V57a3,3,0,0,1-6,0V48H27a3,3,0,0,1-6,0H19v5a3,3,0,0,1-6,0V23a19,19,0,0,1,38,0Z"/><rect x="19" y="44" width="2" height="2"/><rect x="43" y="40" width="2" height="2"/><path d="M32,12A13,13,0,1,0,45,25,13.015,13.015,0,0,0,32,12Zm0,24A11.015,11.015,0,0,1,21.045,26h2.014a9,9,0,0,0,17.882,0h2.014A11.015,11.015,0,0,1,32,36Zm0-6a5.009,5.009,0,0,0,4.9-4h2.03a7,7,0,0,1-13.858,0H27.1A5.009,5.009,0,0,0,32,30Zm-2.829-4h5.658a3,3,0,0,1-5.658,0Zm-8.126-2a11,11,0,0,1,21.91,0Z"/><path d="M24,22h2c0-3.936,5.757-4,6-4l0-2C29.233,16,24,17.254,24,22Z"/><path d="M32,6V8c.084,0,8.477.1,12.133,6.5l1.736-.992C41.629,6.085,32.392,6,32,6Z"/><path d="M7,6a4,4,0,1,0,4,4A4,4,0,0,0,7,6Zm0,6a2,2,0,1,1,2-2A2,2,0,0,1,7,12Z"/><path d="M62,7a5,5,0,1,0-5,5A5.006,5.006,0,0,0,62,7ZM54,7a3,3,0,1,1,3,3A3,3,0,0,1,54,7Z"/><path d="M59,33a4,4,0,1,0,4,4A4,4,0,0,0,59,33Zm0,6a2,2,0,1,1,2-2A2,2,0,0,1,59,39Z"/><path d="M5,24a3,3,0,1,0,3,3A3,3,0,0,0,5,24Zm0,4a1,1,0,1,1,1-1A1,1,0,0,1,5,28Z"/></g></svg>
